PathFileType	4	(X/Y/Z)	H:\MAC\Cortex8\Teaching\Biomec1_N_2\Trimmed_walk2.trc
DataRate	CameraRate	NumFrames	NumMarkers	Units	OrigDataRate	OrigDataStartFrame	OrigNumFrames
150.00	150.00	       8	28	mm	150.00	139	       184
Frame#	Time	R.ASIS			L.ASIS			R.PSIS			L.PSIS			L.Iliac.Crest			R.Iliac.Crest			R.GTR			R.Knee			R.HF			R.TT			R.Ankle			R.Heel			R.MT1			R.MT5			L.GTR			L.Knee			L.HF			L.TT			L.Ankle			L.Heel			L.MT1			L.MT5			R.Knee.Medial			R.Ankle.Medial			R.MT2			L.Knee.Medial			L.Ankle.Medial			L.MT2			V_Mid_ASIS			V_Mid_PSIS			V_Pelvis_Origin			V_R.Hip_JC			V_R.Knee_JC_Static			V_R.TT			V_R.Ankle_JC_Static			V_L.Hip_JC			V_Mid_Hip			V_R.MT2_Static			V_R.Knee.Medial			V_R.Ankle.Medial			V_R.TT			V_L.Knee_JC_Static			V_L.TT			V_L.Ankle_JC_Static			V_L.MT2_Static			V_R.Knee_JC			V_R.Ankle_JC			V_L.Knee_JC			V_L.Ankle_JC			V_R.TT_KJC_Static			V_L.TT_KJC_Static			V_R.TT_KJC			V_L.TT_KJC			V_R.MT2			V_L.MT2			
		X1	Y1	Z1	X2	Y2	Z2	X3	Y3	Z3	X4	Y4	Z4	X5	Y5	Z5	X6	Y6	Z6	X7	Y7	Z7	X8	Y8	Z8	X9	Y9	Z9	X10	Y10	Z10	X11	Y11	Z11	X12	Y12	Z12	X13	Y13	Z13	X14	Y14	Z14	X15	Y15	Z15	X16	Y16	Z16	X17	Y17	Z17	X18	Y18	Z18	X19	Y19	Z19	X20	Y20	Z20	X21	Y21	Z21	X22	Y22	Z22	X23	Y23	Z23	X24	Y24	Z24	X25	Y25	Z25	X26	Y26	Z26	X27	Y27	Z27	X28	Y28	Z28	

139.0	0.92	-287.44586	1000.46899	-1548.21313	-540.51843	990.37897	-1539.26538	-354.12784	1012.78101	-1340.0415	-431.59601	1003.77954	-1331.81592	-580.86493	1052.92847	-1444.45435	-247.57556	1049.56079	-1477.36682	-218.49239	917.19934	-1473.21057	-276.86166	500.55154	-1415.1427	-284.8194	434.09317	-1422.31177	-343.74692	425.33963	-1476.21521	-341.50208	81.91103	-1370.99866	-395.14215	53.45754	-1306.89624	-387.76813	49.25394	-1531.84985	-304.6727	50.20382	-1501.37195	-613.4444	906.76215	-1491.00549	-600.81372	538.70123	-1615.03967	-605.53723	477.67551	-1613.91272	-548.04321	455.2645	-1667.12622	-570.13458	156.54817	-1437.91797	-511.38974	144.60172	-1370.0719	-512.90973	79.86189	-1581.55664	-600.05493	80.23658	-1554.53723	-415.67184	491.94424	-1420.09863	-428.36029	93.57427	-1407.22449	-350.93726	60.11937	-1528.495	-467.474	520.3327	-1619.21533	-484.86011	163.76727	-1482.34131	-548.46814	90.93184	-1578.61011
140.0	0.927	-286.97562	999.59302	-1554.62634	-540.19733	990.17743	-1546.65894	-354.66626	1012.46973	-1346.7146	-432.04062	1003.36615	-1338.73438	-580.81616	1052.76709	-1451.89392	-247.38518	1048.76611	-1483.71143	-218.45311	916.58795	-1478.97034	-276.83478	500.53204	-1417.14587	-284.79443	433.99155	-1423.87366	-342.88733	424.83075	-1477.35254	-341.69427	82.04476	-1371.09045	-395.24387	53.6277	-1307.02319	-387.66953	49.20469	-1531.953	-304.76999	50.06221	-1502.25488	-613.72003	907.13898	-1499.17749	-600.1546	538.97668	-1625.1759	-604.86536	477.82431	-1625.57007	-547.2746	456.81226	-1678.98413	-570.25848	149.7695	-1461.86963	-511.94052	135.03352	-1394.0697	-512.94385	78.84863	-1608.54431	-600.77112	78.27531	-1581.2428	-415.68784	491.71259	-1422.81531	-428.55054	93.4439	-1407.62646	-350.87036	59.96209	-1528.65051	-466.36597	520.30212	-1629.26184	-485.31998	158.49973	-1505.59631	-549.22131	89.81323	-1604.90796
141.0	0.933	-286.59003	998.7179	-1561.13818	-539.93811	989.95819	-1554.04822	-355.1011	1012.04297	-1353.53125	-432.49936	1002.86285	-1345.82263	-580.80902	1052.57666	-1459.51331	-247.19115	1048.00562	-1490.05566	-218.05991	915.97491	-1484.72107	-276.85443	500.52188	-1419.21838	-285.01599	433.81219	-1425.39563	-342.41281	424.30811	-1479.11768	-342.31354	81.92743	-1371.45166	-395.34122	53.79738	-1307.13953	-387.73245	49.1022	-1531.19934	-304.31094	50.52397	-1501.42834	-614.06293	907.38379	-1507.1864	-599.47034	539.09784	-1634.95752	-603.94843	477.72498	-1636.96033	-546.6355	458.24664	-1690.69983	-571.11639	143.21599	-1485.724	-512.56384	125.62881	-1418.65417	-513.72687	78.17655	-1635.25562	-601.53333	76.68926	-1608.01294	-415.63235	491.42096	-1425.71521	-428.85593	93.22617	-1407.73035	-350.86584	60.00893	-1529.23975	-465.29953	520.09497	-1639.17761	-485.78952	153.49434	-1529.22339	-550.01898	88.93365	-1631.1925
142.0	0.94	-286.29486	997.81091	-1567.68225	-539.74524	989.70233	-1561.60693	-355.46317	1011.6308	-1360.33899	-432.94528	1002.31757	-1352.92114	-580.77209	1052.354	-1467.17334	-247.05556	1047.26208	-1496.45337	-217.96361	915.31726	-1490.7002	-276.89282	500.5271	-1421.37354	-284.86295	433.77539	-1427.27246	-341.89166	423.75208	-1481.09204	-342.52817	82.06892	-1371.57141	-395.40497	53.99069	-1307.28015	-387.65329	49.0852	-1531.36145	-304.25967	50.44814	-1501.5061	-614.34589	907.52472	-1515.22302	-598.82697	538.99127	-1644.28125	-603.17908	477.54321	-1647.89819	-546.08478	459.62155	-1702.10681	-571.30835	137.07338	-1510.31506	-513.25995	116.59282	-1443.64453	-514.47308	77.86029	-1661.93677	-602.34131	75.53957	-1634.71606	-415.62473	491.11005	-1428.69617	-429.01645	93.16133	-1407.95032	-350.67392	59.88919	-1529.37341	-464.17477	519.74554	-1648.97449	-486.42279	148.75711	-1552.89819	-550.83997	88.58213	-1657.47693
143.0	0.947	-286.01779	996.91492	-1574.29565	-539.53772	989.34369	-1569.14514	-355.79187	1010.91064	-1367.29761	-433.34311	1001.66089	-1360.11218	-580.75543	1052.10071	-1474.93359	-246.96764	1046.46887	-1502.8573	-217.97018	914.67395	-1496.73914	-276.99017	500.53494	-1423.5741	-284.94638	433.71298	-1429.1311	-342.14224	423.21359	-1482.73206	-342.76672	82.23695	-1371.67334	-395.51743	54.18446	-1307.42432	-387.41348	49.4952	-1532.78601	-304.21078	50.35278	-1501.58301	-614.69965	907.45801	-1523.03809	-598.05139	538.68024	-1653.26184	-602.58826	477.28879	-1658.62915	-545.56232	460.76801	-1713.21509	-572.07373	131.24872	-1534.57007	-514.11456	107.98436	-1468.72668	-515.27289	77.96288	-1688.48547	-603.18311	74.80878	-1661.40503	-415.67374	490.828	-1431.61755	-429.2001	93.08465	-1408.17419	-350.60153	59.70994	-1529.52112	-463.10199	519.29449	-1658.72632	-486.96909	144.34914	-1576.68616	-551.62524	88.5551	-1683.49805
144.0	0.953	-285.76294	995.94495	-1581.01074	-539.4021	988.95844	-1576.72522	-356.37195	1010.60687	-1374.1366	-433.73224	1001.11835	-1367.28247	-580.77106	1051.79663	-1482.73511	-246.86885	1045.69714	-1509.33789	-218.02347	913.99237	-1502.80078	-277.16486	500.53366	-1425.91357	-285.31052	433.58578	-1430.95984	-342.06845	422.75235	-1484.81445	-343.01901	82.42905	-1371.79126	-395.64597	54.42041	-1307.58667	-387.35812	49.42823	-1532.88708	-304.17703	50.25666	-1501.67383	-615.05798	907.15503	-1530.77893	-597.24908	538.17993	-1662.0177	-601.71606	476.82922	-1669.12585	-545.02045	461.85181	-1724.22095	-572.69086	125.73599	-1559.02832	-514.8894	99.67486	-1494.36841	-516.0545	78.49997	-1714.84009	-604.04779	74.50755	-1687.98132	-415.52991	490.40695	-1434.70862	-429.39136	93.00883	-1408.43726	-350.5368	59.51958	-1529.65198	-461.99835	518.7229	-1668.36255	-487.54892	140.21251	-1600.45544	-552.36761	89.00271	-1709.56592
145.0	0.96	-285.53806	994.96118	-1587.72205	-539.2652	988.51611	-1584.40271	-356.66379	1009.86853	-1381.3064	-434.16086	1000.53284	-1374.64758	-580.73499	1051.39905	-1490.5459	-246.81911	1044.93286	-1515.92151	-218.09804	913.22241	-1508.95386	-277.35443	500.54858	-1428.38831	-285.4931	433.52173	-1433.09753	-342.08517	422.2308	-1487.04553	-343.4852	82.79781	-1371.78247	-395.78992	54.69911	-1307.76733	-387.29599	49.36867	-1532.98413	-304.45435	49.7672	-1501.80652	-615.37012	906.698	-1538.37012	-596.50372	537.50659	-1670.31921	-600.96783	476.35117	-1679.27588	-544.44061	462.7576	-1734.86108	-573.45306	120.70206	-1583.52234	-515.64886	91.81912	-1519.87439	-516.87738	79.50549	-1741.17578	-604.90002	74.69814	-1714.42957	-415.92429	490.25299	-1437.51172	-429.58414	92.93567	-1408.72058	-350.48193	59.33882	-1529.80737	-460.88422	518.0719	-1677.89978	-488.19208	136.5582	-1624.3092	-553.18109	89.88152	-1735.43091
146.0	0.967	-285.36435	993.92871	-1594.52222	-539.18268	987.97424	-1592.03564	-357.06949	1009.32904	-1388.38586	-434.61008	999.94446	-1381.94873	-580.74072	1050.90784	-1498.47314	-246.78404	1044.12219	-1522.5769	-218.2408	912.49829	-1515.14514	-277.57123	500.55261	-1431.05139	-285.7489	433.44299	-1435.38257	-342.24619	421.73389	-1489.42773	-343.73596	83.03806	-1371.92529	-395.92377	54.98957	-1307.96228	-387.25745	49.24927	-1533.3429	-304.29816	49.35789	-1501.97058	-615.64618	906.02045	-1545.91919	-595.77081	536.64789	-1678.32532	-600.15588	475.70682	-1689.17993	-543.9292	463.5527	-1745.2417	-574.20258	116.24369	-1607.9585	-516.59326	84.53028	-1545.54907	-517.73236	80.94551	-1767.18311	-605.78271	75.40865	-1740.76172	-416.20459	490.03333	-1440.49353	-429.79395	92.87459	-1409.03491	-350.58755	58.96271	-1529.82166	-459.78317	517.41357	-1687.12842	-488.86078	133.29939	-1648.16956	-553.90863	91.29003	-1761.11292
